<svg xmlns="http://www.w3.org/2000/svg" class="scene" viewBox="0 0 620 480" role="img" aria-label="A geometric loon with hexagon-spotted plumage riding swooping waves, pines on the far shore">
     <defs>
       <linearGradient id="sky" x1="0" y1="0" x2="0" y2="1">
         <stop offset="0" stop-color="#EFE9DA"/><stop offset="1" stop-color="#DCE7E4"/>
       </linearGradient>
       <linearGradient id="water" x1="0" y1="0" x2="0" y2="1">
         <stop offset="0" stop-color="#2A5A73"/><stop offset="1" stop-color="#0C1E2C"/>
       </linearGradient>
       <clipPath id="frame"><rect x="0" y="0" width="620" height="480" rx="18"/></clipPath>
       <path id="hx" d="M9 0 L4.5 7.8 L-4.5 7.8 L-9 0 L-4.5 -7.8 L4.5 -7.8 Z"/>
     </defs>
     <g clip-path="url(#frame)">
       <rect x="0" y="0" width="620" height="480" fill="url(#sky)"/>
       <circle cx="104" cy="88" r="40" fill="#EFC15A" opacity=".55"/>
       <!-- far hills -->
       <path d="M0 300 L70 250 L120 278 L190 232 L250 292 L300 262 L360 300 Z" fill="#2E6650" opacity=".35"/>
       <path d="M280 300 L340 246 L392 284 L450 240 L510 290 L560 256 L620 300 Z" fill="#2E6650" opacity=".28"/>
       <!-- pines -->
       <g fill="#1F4A3A">
         <path d="M78 288 L96 200 L114 288 Z"/><rect x="93" y="286" width="6" height="16"/>
         <path d="M124 292 L138 226 L152 292 Z"/><rect x="135" y="290" width="6" height="12"/>
         <path d="M32 292 L46 232 L60 292 Z"/><rect x="43" y="290" width="6" height="12"/>
       </g>
       <g fill="#2E6650">
         <path d="M520 290 L540 208 L560 290 Z"/><rect x="537" y="288" width="6" height="14"/>
         <path d="M570 292 L584 238 L598 292 Z"/><rect x="581" y="290" width="6" height="12"/>
       </g>
       <!-- water -->
       <rect x="0" y="300" width="620" height="180" fill="url(#water)"/>

       <!-- the loon — traced from the actual mark -->
       <g>
         <path d="M275.8 375.3 L269.0 375.3 L263.8 374.7 L253.4 372.0 L247.9 369.6 L242.5 366.5 L235.5 361.3 L228.3 353.3 L224.5 347.5 L221.8 342.1 L218.5 331.9 L217.6 325.8 L217.4 320.6 L294.9 320.5 L304.5 311.6 L305.9 305.3 L308.7 298.0 L311.9 291.8 L316.8 285.0 L321.7 280.0 L325.7 277.1 L329.0 275.5 L334.8 274.0 L340.8 274.2 L346.1 275.7 L350.6 278.2 L354.9 282.1 L357.5 285.8 L359.8 291.6 L360.4 294.7 L360.4 299.6 L359.8 302.2 L360.1 302.8 L382.6 311.6 L326.8 311.5 L327.4 318.9 L327.2 325.1 L325.4 335.1 L321.8 344.6 L316.1 353.7 L313.6 356.8 L307.5 362.7 L298.9 368.6 L288.7 372.9 L282.0 374.6 L275.8 375.3 Z M352.2 299.8 L353.6 298.9 L353.8 297.8 L353.2 296.4 L351.7 295.9 L350.0 297.3 L350.0 298.5 L350.8 299.5 L352.2 299.8 Z M274.2 367.7 L278.5 367.5 L285.4 366.0 L291.4 363.8 L295.8 361.6 L303.3 356.3 L309.9 349.3 L312.8 345.1 L315.8 339.7 L318.5 331.7 L319.8 323.7 L319.8 317.1 L318.9 311.5 L315.8 311.5 L257.3 365.2 L264.1 367.1 L270.9 367.8 L274.2 367.7 Z M235.3 336.8 L238.2 332.0 L237.3 330.0 L235.3 327.0 L229.7 327.0 L226.9 331.9 L227.2 332.8 L229.9 336.9 L235.3 336.8 Z M274.0 336.8 L277.0 332.0 L275.5 329.1 L274.1 327.0 L268.5 327.0 L265.7 331.7 L266.0 332.8 L268.5 336.9 L274.0 336.8 Z M254.9 336.8 L257.5 332.8 L257.7 331.3 L255.0 327.0 L249.4 327.0 L246.5 331.9 L247.3 333.3 L249.6 336.9 L254.9 336.8 Z M244.4 347.3 L247.3 342.6 L246.7 341.3 L244.5 337.6 L238.8 337.6 L236.0 342.4 L236.7 344.1 L238.8 347.4 L244.4 347.3 Z M265.1 347.3 L267.9 342.6 L266.9 340.6 L265.0 337.6 L259.4 337.6 L256.6 342.4 L258.6 346.2 L259.4 347.4 L265.1 347.3 Z M253.5 357.7 L254.0 357.5 L255.7 354.8 L256.6 353.0 L256.4 352.1 L253.7 347.8 L248.3 347.8 L245.5 352.4 L246.4 354.8 L248.1 357.6 L253.5 357.7 Z" fill="#12212E"/>
         <path d="M274.1 367.8 L268.1 367.6 L264.1 367.1 L259.2 366.0 L257.4 365.5 L257.3 365.2 L315.8 311.5 L318.9 311.5 L319.8 317.1 L319.8 323.7 L318.5 331.7 L317.2 336.0 L315.8 339.7 L312.8 345.1 L309.9 349.3 L306.1 353.7 L303.3 356.3 L299.8 359.1 L295.8 361.6 L291.4 363.8 L285.4 366.0 L278.5 367.5 L274.1 367.8 Z M235.2 336.9 L229.9 336.9 L227.2 332.8 L226.9 331.9 L229.7 327.0 L235.3 327.0 L237.3 330.0 L238.2 332.0 L235.8 336.2 L235.2 336.9 Z M274.0 336.9 L268.5 336.9 L266.0 332.8 L265.7 331.7 L268.5 327.0 L274.1 327.0 L275.5 329.1 L277.0 332.0 L274.0 336.9 Z M254.8 336.9 L249.6 336.9 L247.3 333.3 L246.5 331.9 L249.4 327.0 L255.0 327.0 L257.7 331.3 L257.8 332.0 L257.5 332.8 L254.8 336.9 Z M244.3 347.4 L238.8 347.4 L236.7 344.1 L236.0 342.4 L238.8 337.6 L244.5 337.6 L246.7 341.3 L247.3 342.6 L244.3 347.4 Z M265.0 347.4 L259.4 347.4 L258.6 346.2 L256.6 342.4 L259.4 337.6 L265.0 337.6 L266.9 340.6 L267.9 342.6 L265.0 347.4 Z M253.4 357.8 L248.1 357.6 L246.4 354.8 L245.5 352.4 L248.3 347.8 L253.7 347.8 L256.4 352.1 L256.6 353.0 L255.7 354.8 L254.0 357.5 L253.4 357.8 Z" fill="#F6F2E7"/>
         <circle class="eye" cx="351.9" cy="297.9" r="1.9" fill="#C6342A"/>
       </g>
       <g fill="#F6F2E7">
         <path class="ripple" d="M280.0 399.0 L270.9 398.6 L259.9 395.9 L250.5 391.5 L228.8 379.3 L224.2 377.7 L221.1 377.1 L220.7 376.7 L220.9 367.0 L222.6 367.1 L227.0 368.6 L235.2 372.2 L250.3 381.8 L258.5 386.4 L268.1 389.9 L274.0 391.0 L281.1 390.8 L290.7 388.2 L298.5 384.4 L315.8 373.7 L321.9 370.7 L331.1 367.8 L340.1 366.7 L347.0 366.9 L353.4 367.8 L357.4 368.9 L363.4 371.5 L367.4 373.7 L370.3 375.8 L377.5 384.3 L377.3 385.0 L373.2 389.5 L369.2 385.9 L364.1 382.2 L356.1 378.2 L350.6 376.6 L346.1 375.8 L337.2 376.2 L328.4 378.2 L320.0 381.3 L315.5 383.5 L301.6 391.5 L290.2 396.8 L285.8 398.1 L280.0 399.0 Z" opacity=".8"/>
         <path class="ripple r2" d="M284.7 420.1 L281.8 420.1 L279.8 419.4 L269.0 411.9 L260.8 407.6 L267.8 409.9 L275.0 411.0 L279.2 410.8 L287.8 409.2 L293.1 407.5 L299.1 404.8 L311.5 397.1 L318.9 393.3 L326.8 390.6 L335.1 388.6 L345.5 388.2 L350.6 388.9 L357.9 391.1 L363.5 394.5 L359.2 396.4 L355.6 399.6 L354.8 401.0 L351.0 399.5 L346.1 398.4 L337.0 398.6 L328.8 400.2 L319.3 404.2 L303.1 413.5 L296.4 416.8 L289.4 419.2 L284.7 420.1 Z" opacity=".42"/>
       </g>
     </g>
   </svg>